<svg width="746" height="789" viewBox="0 0 746 789" fill="none" xmlns="http://www.w3.org/2000/svg">
<path d="M1 347.127V788.288L461.928 689.252" fill="#FFE424"/>
<path d="M1 347.127V788.288L461.928 689.252" stroke="#F9F67D" stroke-miterlimit="10"/>
<path d="M373.37 698.255C579.024 698.255 745.74 541.945 745.74 349.127C745.74 156.31 579.024 0 373.37 0C167.716 0 1 156.31 1 349.127C1 541.945 167.716 698.255 373.37 698.255Z" fill="#FFE424"/>
<path d="M370.863 507.185C370.863 507.185 404.066 463.599 423.997 463.599C443.928 463.599 477.121 476.054 477.121 476.054C477.121 476.054 530.246 463.599 583.38 457.377C636.515 451.155 716.932 239.497 716.932 239.497C715.865 234.846 423.997 270.629 370.863 320.437C317.739 270.629 26.607 234.846 25.54 239.497C25.54 239.497 105.968 451.195 159.092 457.417C212.216 463.639 265.351 476.094 265.351 476.094C265.351 476.094 298.555 463.639 318.475 463.639C338.395 463.639 370.863 507.185 370.863 507.185Z" fill="black"/>
<path d="M91.9482 276.851C91.9482 276.851 344.306 307.982 337.659 426.286C337.659 426.286 188.743 421.734 158.409 401.376C128.076 381.019 91.9482 276.851 91.9482 276.851Z" fill="#FFE424" stroke="#F9F67D" stroke-miterlimit="10"/>
<path d="M649.789 276.851C649.789 276.851 397.431 307.982 404.067 426.286C404.067 426.286 552.994 421.734 583.381 401.376C613.768 381.019 649.789 276.851 649.789 276.851Z" fill="#FFE424" stroke="#F9F67D" stroke-miterlimit="10"/>
</svg>
